<svg width="345" height="66" viewBox="0 0 345 66" fill="none" xmlns="http://www.w3.org/2000/svg">
<path d="M93.754 33.0342L90.244 27.9642H90.036H86.37V33.0342H82.158V14.8342H90.036C91.648 14.8342 93.0433 15.1028 94.222 15.6402C95.418 16.1775 96.3367 16.9402 96.978 17.9282C97.6193 18.9162 97.94 20.0862 97.94 21.4382C97.94 22.7902 97.6107 23.9602 96.952 24.9482C96.3107 25.9188 95.392 26.6642 94.196 27.1842L98.278 33.0342H93.754ZM93.676 21.4382C93.676 20.4155 93.3467 19.6355 92.688 19.0982C92.0293 18.5435 91.0673 18.2662 89.802 18.2662H86.37V24.6102H89.802C91.0673 24.6102 92.0293 24.3328 92.688 23.7782C93.3467 23.2235 93.676 22.4435 93.676 21.4382ZM110.351 33.3462C108.462 33.3462 106.754 32.9388 105.229 32.1242C103.721 31.3095 102.534 30.1915 101.667 28.7702C100.818 27.3315 100.393 25.7195 100.393 23.9342C100.393 22.1488 100.818 20.5455 101.667 19.1242C102.534 17.6855 103.721 16.5588 105.229 15.7442C106.754 14.9295 108.462 14.5222 110.351 14.5222C112.24 14.5222 113.939 14.9295 115.447 15.7442C116.955 16.5588 118.142 17.6855 119.009 19.1242C119.876 20.5455 120.309 22.1488 120.309 23.9342C120.309 25.7195 119.876 27.3315 119.009 28.7702C118.142 30.1915 116.955 31.3095 115.447 32.1242C113.939 32.9388 112.24 33.3462 110.351 33.3462ZM110.351 29.7582C111.426 29.7582 112.396 29.5155 113.263 29.0302C114.13 28.5275 114.806 27.8342 115.291 26.9502C115.794 26.0662 116.045 25.0608 116.045 23.9342C116.045 22.8075 115.794 21.8022 115.291 20.9182C114.806 20.0342 114.13 19.3495 113.263 18.8642C112.396 18.3615 111.426 18.1102 110.351 18.1102C109.276 18.1102 108.306 18.3615 107.439 18.8642C106.572 19.3495 105.888 20.0342 105.385 20.9182C104.9 21.8022 104.657 22.8075 104.657 23.9342C104.657 25.0608 104.9 26.0662 105.385 26.9502C105.888 27.8342 106.572 28.5275 107.439 29.0302C108.306 29.5155 109.276 29.7582 110.351 29.7582ZM137.099 23.5702C138.139 23.8995 138.953 24.4542 139.543 25.2342C140.132 25.9968 140.427 26.9415 140.427 28.0682C140.427 29.6628 139.803 30.8935 138.555 31.7602C137.324 32.6095 135.521 33.0342 133.147 33.0342H123.735V14.8342H132.627C134.845 14.8342 136.544 15.2588 137.723 16.1082C138.919 16.9575 139.517 18.1102 139.517 19.5662C139.517 20.4502 139.3 21.2388 138.867 21.9322C138.451 22.6255 137.861 23.1715 137.099 23.5702ZM127.921 18.0062V22.2962H132.107C133.147 22.2962 133.935 22.1142 134.473 21.7502C135.01 21.3862 135.279 20.8488 135.279 20.1382C135.279 19.4275 135.01 18.8988 134.473 18.5522C133.935 18.1882 133.147 18.0062 132.107 18.0062H127.921ZM132.835 29.8622C133.944 29.8622 134.776 29.6802 135.331 29.3162C135.903 28.9522 136.189 28.3888 136.189 27.6262C136.189 26.1182 135.071 25.3642 132.835 25.3642H127.921V29.8622H132.835ZM152.689 33.3462C150.8 33.3462 149.093 32.9388 147.567 32.1242C146.059 31.3095 144.872 30.1915 144.005 28.7702C143.156 27.3315 142.731 25.7195 142.731 23.9342C142.731 22.1488 143.156 20.5455 144.005 19.1242C144.872 17.6855 146.059 16.5588 147.567 15.7442C149.093 14.9295 150.8 14.5222 152.689 14.5222C154.579 14.5222 156.277 14.9295 157.785 15.7442C159.293 16.5588 160.481 17.6855 161.348 19.1242C162.214 20.5455 162.648 22.1488 162.648 23.9342C162.648 25.7195 162.214 27.3315 161.348 28.7702C160.481 30.1915 159.293 31.3095 157.785 32.1242C156.277 32.9388 154.579 33.3462 152.689 33.3462ZM152.689 29.7582C153.764 29.7582 154.735 29.5155 155.601 29.0302C156.468 28.5275 157.144 27.8342 157.63 26.9502C158.132 26.0662 158.383 25.0608 158.383 23.9342C158.383 22.8075 158.132 21.8022 157.63 20.9182C157.144 20.0342 156.468 19.3495 155.601 18.8642C154.735 18.3615 153.764 18.1102 152.689 18.1102C151.615 18.1102 150.644 18.3615 149.777 18.8642C148.911 19.3495 148.226 20.0342 147.723 20.9182C147.238 21.8022 146.995 22.8075 146.995 23.9342C146.995 25.0608 147.238 26.0662 147.723 26.9502C148.226 27.8342 148.911 28.5275 149.777 29.0302C150.644 29.5155 151.615 29.7582 152.689 29.7582ZM169.589 18.2662H163.765V14.8342H179.625V18.2662H173.801V33.0342H169.589V18.2662ZM195.385 33.0342L191.225 27.1842C190.757 27.2362 190.272 27.2622 189.769 27.2622H184.881V33.0342H182.957V14.8342H189.769C192.092 14.8342 193.912 15.3888 195.229 16.4982C196.547 17.6075 197.205 19.1328 197.205 21.0742C197.205 22.4955 196.841 23.7002 196.113 24.6882C195.403 25.6588 194.38 26.3608 193.045 26.7942L197.491 33.0342H195.385ZM189.717 25.6242C191.52 25.6242 192.898 25.2255 193.851 24.4282C194.805 23.6308 195.281 22.5128 195.281 21.0742C195.281 19.6008 194.805 18.4742 193.851 17.6942C192.898 16.8968 191.52 16.4982 189.717 16.4982H184.881V25.6242H189.717ZM213.42 28.1722H203.28L201.096 33.0342H199.094L207.414 14.8342H209.312L217.632 33.0342H215.604L213.42 28.1722ZM212.718 26.6122L208.35 16.8362L203.982 26.6122H212.718ZM223.525 16.4982H217.129V14.8342H231.845V16.4982H225.449V33.0342H223.525V16.4982ZM235.179 14.8342H237.103V33.0342H235.179V14.8342ZM258.494 14.8342V33.0342H256.908L245.208 18.2662V33.0342H243.284V14.8342H244.87L256.596 29.6022V14.8342H258.494ZM277.513 23.9342H279.359V30.8762C278.51 31.6215 277.504 32.1935 276.343 32.5922C275.182 32.9908 273.96 33.1902 272.677 33.1902C270.857 33.1902 269.219 32.7915 267.763 31.9942C266.307 31.1968 265.163 30.0962 264.331 28.6922C263.499 27.2708 263.083 25.6848 263.083 23.9342C263.083 22.1835 263.499 20.6062 264.331 19.2022C265.163 17.7808 266.307 16.6715 267.763 15.8742C269.219 15.0768 270.866 14.6782 272.703 14.6782C274.09 14.6782 275.364 14.9035 276.525 15.3542C277.686 15.7875 278.666 16.4375 279.463 17.3042L278.267 18.5262C276.828 17.1048 275 16.3942 272.781 16.3942C271.308 16.3942 269.973 16.7235 268.777 17.3822C267.598 18.0235 266.671 18.9248 265.995 20.0862C265.319 21.2302 264.981 22.5128 264.981 23.9342C264.981 25.3555 265.319 26.6382 265.995 27.7822C266.671 28.9262 267.598 29.8275 268.777 30.4862C269.956 31.1448 271.282 31.4742 272.755 31.4742C274.627 31.4742 276.213 31.0062 277.513 30.0702V23.9342ZM290.082 33.1902C288.73 33.1902 287.43 32.9735 286.182 32.5402C284.952 32.1068 283.998 31.5348 283.322 30.8242L284.076 29.3422C284.735 30.0008 285.61 30.5382 286.702 30.9542C287.794 31.3528 288.921 31.5522 290.082 31.5522C291.712 31.5522 292.934 31.2575 293.748 30.6682C294.563 30.0615 294.97 29.2815 294.97 28.3282C294.97 27.6002 294.745 27.0195 294.294 26.5862C293.861 26.1528 293.324 25.8235 292.682 25.5982C292.041 25.3555 291.148 25.0955 290.004 24.8182C288.635 24.4715 287.543 24.1422 286.728 23.8302C285.914 23.5008 285.212 23.0068 284.622 22.3482C284.05 21.6895 283.764 20.7968 283.764 19.6702C283.764 18.7515 284.007 17.9195 284.492 17.1742C284.978 16.4115 285.723 15.8048 286.728 15.3542C287.734 14.9035 288.982 14.6782 290.472 14.6782C291.512 14.6782 292.526 14.8255 293.514 15.1202C294.52 15.3975 295.386 15.7875 296.114 16.2902L295.464 17.8242C294.702 17.3215 293.887 16.9488 293.02 16.7062C292.154 16.4462 291.304 16.3162 290.472 16.3162C288.878 16.3162 287.673 16.6282 286.858 17.2522C286.061 17.8588 285.662 18.6475 285.662 19.6182C285.662 20.3462 285.879 20.9355 286.312 21.3862C286.763 21.8195 287.318 22.1575 287.976 22.4002C288.652 22.6255 289.554 22.8768 290.68 23.1542C292.015 23.4835 293.09 23.8128 293.904 24.1422C294.736 24.4542 295.438 24.9395 296.01 25.5982C296.582 26.2395 296.868 27.1148 296.868 28.2242C296.868 29.1428 296.617 29.9835 296.114 30.7462C295.629 31.4915 294.875 32.0895 293.852 32.5402C292.83 32.9735 291.573 33.1902 290.082 33.1902ZM301.62 33.1642C301.239 33.1642 300.909 33.0255 300.632 32.7482C300.372 32.4708 300.242 32.1328 300.242 31.7342C300.242 31.3355 300.372 31.0062 300.632 30.7462C300.909 30.4688 301.239 30.3302 301.62 30.3302C302.001 30.3302 302.331 30.4688 302.608 30.7462C302.885 31.0062 303.024 31.3355 303.024 31.7342C303.024 32.1328 302.885 32.4708 302.608 32.7482C302.331 33.0255 302.001 33.1642 301.62 33.1642ZM320.026 33.0342L315.866 27.1842C315.398 27.2362 314.913 27.2622 314.41 27.2622H309.522V33.0342H307.598V14.8342H314.41C316.733 14.8342 318.553 15.3888 319.87 16.4982C321.187 17.6075 321.846 19.1328 321.846 21.0742C321.846 22.4955 321.482 23.7002 320.754 24.6882C320.043 25.6588 319.021 26.3608 317.686 26.7942L322.132 33.0342H320.026ZM314.358 25.6242C316.161 25.6242 317.539 25.2255 318.492 24.4282C319.445 23.6308 319.922 22.5128 319.922 21.0742C319.922 19.6008 319.445 18.4742 318.492 17.6942C317.539 16.8968 316.161 16.4982 314.358 16.4982H309.522V25.6242H314.358ZM333.979 33.1902C331.622 33.1902 329.784 32.5142 328.467 31.1622C327.15 29.8102 326.491 27.8428 326.491 25.2602V14.8342H328.415V25.1822C328.415 27.2968 328.892 28.8742 329.845 29.9142C330.798 30.9542 332.176 31.4742 333.979 31.4742C335.799 31.4742 337.186 30.9542 338.139 29.9142C339.092 28.8742 339.569 27.2968 339.569 25.1822V14.8342H341.441V25.2602C341.441 27.8428 340.782 29.8102 339.465 31.1622C338.165 32.5142 336.336 33.1902 333.979 33.1902Z" fill="white"/>
<path opacity="0.5" d="M83.816 51.0942C83.208 51.0942 82.66 50.9582 82.172 50.6862C81.684 50.4062 81.3 50.0222 81.02 49.5342C80.74 49.0462 80.6 48.4942 80.6 47.8782C80.6 47.2622 80.74 46.7102 81.02 46.2222C81.3 45.7342 81.684 45.3542 82.172 45.0822C82.66 44.8102 83.208 44.6742 83.816 44.6742C84.424 44.6742 84.972 44.8102 85.46 45.0822C85.948 45.3542 86.328 45.7342 86.6 46.2222C86.88 46.7102 87.02 47.2622 87.02 47.8782C87.02 48.4942 86.88 49.0462 86.6 49.5342C86.328 50.0222 85.948 50.4062 85.46 50.6862C84.972 50.9582 84.424 51.0942 83.816 51.0942ZM83.816 50.3382C84.264 50.3382 84.664 50.2382 85.016 50.0382C85.376 49.8302 85.656 49.5382 85.856 49.1622C86.056 48.7862 86.156 48.3582 86.156 47.8782C86.156 47.3982 86.056 46.9702 85.856 46.5942C85.656 46.2182 85.376 45.9302 85.016 45.7302C84.664 45.5222 84.264 45.4182 83.816 45.4182C83.368 45.4182 82.964 45.5222 82.604 45.7302C82.252 45.9302 81.972 46.2182 81.764 46.5942C81.564 46.9702 81.464 47.3982 81.464 47.8782C81.464 48.3582 81.564 48.7862 81.764 49.1622C81.972 49.5382 82.252 49.8302 82.604 50.0382C82.964 50.2382 83.368 50.3382 83.816 50.3382ZM91.9009 44.8782C92.4849 44.8782 93.0049 45.0102 93.4609 45.2742C93.9249 45.5302 94.2849 45.8942 94.5409 46.3662C94.7969 46.8302 94.9249 47.3622 94.9249 47.9622C94.9249 48.5782 94.7889 49.1262 94.5169 49.6062C94.2529 50.0782 93.8809 50.4462 93.4009 50.7102C92.9209 50.9742 92.3689 51.1062 91.7449 51.1062C90.6969 51.1062 89.8849 50.7382 89.3089 50.0022C88.7329 49.2662 88.4449 48.2502 88.4449 46.9542C88.4449 45.6022 88.7009 44.5662 89.2129 43.8462C89.7329 43.1262 90.5409 42.6382 91.6369 42.3822L94.4689 41.7342L94.6129 42.5142L91.9489 43.1262C91.0449 43.3262 90.3809 43.6822 89.9569 44.1942C89.5329 44.6982 89.3009 45.4462 89.2609 46.4382C89.5169 45.9502 89.8729 45.5702 90.3289 45.2982C90.7849 45.0182 91.3089 44.8782 91.9009 44.8782ZM91.7689 50.3982C92.2089 50.3982 92.6009 50.2982 92.9449 50.0982C93.2969 49.8902 93.5689 49.6022 93.7609 49.2342C93.9609 48.8662 94.0609 48.4502 94.0609 47.9862C94.0609 47.5222 93.9649 47.1142 93.7729 46.7622C93.5809 46.4102 93.3089 46.1382 92.9569 45.9462C92.6129 45.7462 92.2169 45.6462 91.7689 45.6462C91.3209 45.6462 90.9209 45.7462 90.5689 45.9462C90.2249 46.1382 89.9529 46.4102 89.7529 46.7622C89.5609 47.1142 89.4649 47.5222 89.4649 47.9862C89.4649 48.4502 89.5609 48.8662 89.7529 49.2342C89.9529 49.6022 90.2289 49.8902 90.5809 50.0982C90.9329 50.2982 91.3289 50.3982 91.7689 50.3982ZM99.7762 47.7462C100.224 47.8502 100.568 48.0302 100.808 48.2862C101.056 48.5422 101.18 48.8542 101.18 49.2222C101.18 49.5902 101.052 49.9182 100.796 50.2062C100.548 50.4942 100.208 50.7182 99.7762 50.8782C99.3442 51.0302 98.8682 51.1062 98.3482 51.1062C97.8922 51.1062 97.4442 51.0422 97.0042 50.9142C96.5642 50.7782 96.1802 50.5822 95.8522 50.3262L96.1402 49.6902C96.4282 49.9062 96.7642 50.0742 97.1482 50.1942C97.5322 50.3142 97.9202 50.3742 98.3122 50.3742C98.8962 50.3742 99.3722 50.2662 99.7402 50.0502C100.116 49.8262 100.304 49.5262 100.304 49.1502C100.304 48.8142 100.152 48.5542 99.8482 48.3702C99.5442 48.1782 99.1282 48.0822 98.6002 48.0822H97.5202V47.4582H98.5522C99.0242 47.4582 99.4042 47.3702 99.6922 47.1942C99.9802 47.0102 100.124 46.7662 100.124 46.4622C100.124 46.1262 99.9602 45.8622 99.6322 45.6702C99.3122 45.4782 98.8922 45.3822 98.3722 45.3822C97.6922 45.3822 97.0202 45.5542 96.3562 45.8982L96.1162 45.2382C96.8682 44.8462 97.6482 44.6502 98.4562 44.6502C98.9362 44.6502 99.3682 44.7222 99.7522 44.8662C100.144 45.0022 100.448 45.1982 100.664 45.4542C100.888 45.7102 101 46.0062 101 46.3422C101 46.6622 100.888 46.9462 100.664 47.1942C100.448 47.4422 100.152 47.6262 99.7762 47.7462ZM105.718 51.0942C105.11 51.0942 104.562 50.9582 104.074 50.6862C103.586 50.4062 103.202 50.0222 102.922 49.5342C102.642 49.0462 102.502 48.4942 102.502 47.8782C102.502 47.2622 102.642 46.7102 102.922 46.2222C103.202 45.7342 103.586 45.3542 104.074 45.0822C104.562 44.8102 105.11 44.6742 105.718 44.6742C106.326 44.6742 106.874 44.8102 107.362 45.0822C107.85 45.3542 108.23 45.7342 108.502 46.2222C108.782 46.7102 108.922 47.2622 108.922 47.8782C108.922 48.4942 108.782 49.0462 108.502 49.5342C108.23 50.0222 107.85 50.4062 107.362 50.6862C106.874 50.9582 106.326 51.0942 105.718 51.0942ZM105.718 50.3382C106.166 50.3382 106.566 50.2382 106.918 50.0382C107.278 49.8302 107.558 49.5382 107.758 49.1622C107.958 48.7862 108.058 48.3582 108.058 47.8782C108.058 47.3982 107.958 46.9702 107.758 46.5942C107.558 46.2182 107.278 45.9302 106.918 45.7302C106.566 45.5222 106.166 45.4182 105.718 45.4182C105.27 45.4182 104.866 45.5222 104.506 45.7302C104.154 45.9302 103.874 46.2182 103.666 46.5942C103.466 46.9702 103.366 47.3982 103.366 47.8782C103.366 48.3582 103.466 48.7862 103.666 49.1622C103.874 49.5382 104.154 49.8302 104.506 50.0382C104.866 50.2382 105.27 50.3382 105.718 50.3382ZM113.995 44.6742C114.587 44.6742 115.123 44.8102 115.603 45.0822C116.083 45.3462 116.459 45.7222 116.731 46.2102C117.003 46.6982 117.139 47.2542 117.139 47.8782C117.139 48.5102 117.003 49.0702 116.731 49.5582C116.459 50.0462 116.083 50.4262 115.603 50.6982C115.131 50.9622 114.595 51.0942 113.995 51.0942C113.483 51.0942 113.019 50.9902 112.603 50.7822C112.195 50.5662 111.859 50.2542 111.595 49.8462V53.3622H110.743V44.7222H111.559V45.9702C111.815 45.5542 112.151 45.2342 112.567 45.0102C112.991 44.7862 113.467 44.6742 113.995 44.6742ZM113.935 50.3382C114.375 50.3382 114.775 50.2382 115.135 50.0382C115.495 49.8302 115.775 49.5382 115.975 49.1622C116.183 48.7862 116.287 48.3582 116.287 47.8782C116.287 47.3982 116.183 46.9742 115.975 46.6062C115.775 46.2302 115.495 45.9382 115.135 45.7302C114.775 45.5222 114.375 45.4182 113.935 45.4182C113.487 45.4182 113.083 45.5222 112.723 45.7302C112.371 45.9382 112.091 46.2302 111.883 46.6062C111.683 46.9742 111.583 47.3982 111.583 47.8782C111.583 48.3582 111.683 48.7862 111.883 49.1622C112.091 49.5382 112.371 49.8302 112.723 50.0382C113.083 50.2382 113.487 50.3382 113.935 50.3382ZM121.622 46.9542C122.414 46.9622 123.018 47.1382 123.434 47.4822C123.85 47.8262 124.058 48.3222 124.058 48.9702C124.058 49.6422 123.834 50.1582 123.386 50.5182C122.938 50.8782 122.298 51.0542 121.466 51.0462L118.97 51.0342V44.7222H119.822V46.9302L121.622 46.9542ZM125.114 44.7222H125.966V51.0342H125.114V44.7222ZM121.418 50.3982C122.002 50.4062 122.442 50.2902 122.738 50.0502C123.042 49.8022 123.194 49.4422 123.194 48.9702C123.194 48.5062 123.046 48.1622 122.75 47.9382C122.454 47.7142 122.01 47.5982 121.418 47.5902L119.822 47.5662V50.3742L121.418 50.3982ZM131.532 44.7222H132.384V49.7382L136.596 44.7222H137.352V51.0342H136.5V46.0182L132.3 51.0342H131.532V44.7222ZM146.187 44.6742C146.779 44.6742 147.315 44.8102 147.795 45.0822C148.275 45.3462 148.651 45.7222 148.923 46.2102C149.195 46.6982 149.331 47.2542 149.331 47.8782C149.331 48.5102 149.195 49.0702 148.923 49.5582C148.651 50.0462 148.275 50.4262 147.795 50.6982C147.323 50.9622 146.787 51.0942 146.187 51.0942C145.675 51.0942 145.211 50.9902 144.795 50.7822C144.387 50.5662 144.051 50.2542 143.787 49.8462V53.3622H142.935V44.7222H143.751V45.9702C144.007 45.5542 144.343 45.2342 144.759 45.0102C145.183 44.7862 145.659 44.6742 146.187 44.6742ZM146.127 50.3382C146.567 50.3382 146.967 50.2382 147.327 50.0382C147.687 49.8302 147.967 49.5382 148.167 49.1622C148.375 48.7862 148.479 48.3582 148.479 47.8782C148.479 47.3982 148.375 46.9742 148.167 46.6062C147.967 46.2302 147.687 45.9382 147.327 45.7302C146.967 45.5222 146.567 45.4182 146.127 45.4182C145.679 45.4182 145.275 45.5222 144.915 45.7302C144.563 45.9382 144.283 46.2302 144.075 46.6062C143.875 46.9742 143.775 47.3982 143.775 47.8782C143.775 48.3582 143.875 48.7862 144.075 49.1622C144.283 49.5382 144.563 49.8302 144.915 50.0382C145.275 50.2382 145.679 50.3382 146.127 50.3382ZM156.681 48.1422H151.401C151.449 48.7982 151.701 49.3302 152.157 49.7382C152.613 50.1382 153.189 50.3382 153.885 50.3382C154.277 50.3382 154.637 50.2702 154.965 50.1342C155.293 49.9902 155.577 49.7822 155.817 49.5102L156.297 50.0622C156.017 50.3982 155.665 50.6542 155.241 50.8302C154.825 51.0062 154.365 51.0942 153.861 51.0942C153.213 51.0942 152.637 50.9582 152.133 50.6862C151.637 50.4062 151.249 50.0222 150.969 49.5342C150.689 49.0462 150.549 48.4942 150.549 47.8782C150.549 47.2622 150.681 46.7102 150.945 46.2222C151.217 45.7342 151.585 45.3542 152.049 45.0822C152.521 44.8102 153.049 44.6742 153.633 44.6742C154.217 44.6742 154.741 44.8102 155.205 45.0822C155.669 45.3542 156.033 45.7342 156.297 46.2222C156.561 46.7022 156.693 47.2542 156.693 47.8782L156.681 48.1422ZM153.633 45.4062C153.025 45.4062 152.513 45.6022 152.097 45.9942C151.689 46.3782 151.457 46.8822 151.401 47.5062H155.877C155.821 46.8822 155.585 46.3782 155.169 45.9942C154.761 45.6022 154.249 45.4062 153.633 45.4062ZM158.579 44.7222H159.431V49.7382L163.643 44.7222H164.399V51.0342H163.547V46.0182L159.347 51.0342H158.579V44.7222ZM161.447 43.8102C160.903 43.8102 160.471 43.6742 160.151 43.4022C159.831 43.1302 159.667 42.7462 159.659 42.2502H160.271C160.279 42.5622 160.391 42.8142 160.607 43.0062C160.823 43.1902 161.103 43.2822 161.447 43.2822C161.791 43.2822 162.071 43.1902 162.287 43.0062C162.511 42.8142 162.627 42.5622 162.635 42.2502H163.247C163.239 42.7462 163.071 43.1302 162.743 43.4022C162.423 43.6742 161.991 43.8102 161.447 43.8102ZM171.281 45.4782H168.893V51.0342H168.041V45.4782H165.653V44.7222H171.281V45.4782ZM172.513 44.7222H173.365V49.7382L177.577 44.7222H178.333V51.0342H177.481V46.0182L173.281 51.0342H172.513V44.7222ZM180.775 44.7222H181.627V47.5182H185.599V44.7222H186.451V51.0342H185.599V48.2502H181.627V51.0342H180.775V44.7222ZM193.336 45.4782H189.724V51.0342H188.872V44.7222H193.336V45.4782ZM194.567 44.7222H195.419V49.7382L199.631 44.7222H200.387V51.0342H199.535V46.0182L195.335 51.0342H194.567V44.7222ZM209.222 44.6742C209.814 44.6742 210.35 44.8102 210.83 45.0822C211.31 45.3462 211.686 45.7222 211.958 46.2102C212.23 46.6982 212.366 47.2542 212.366 47.8782C212.366 48.5102 212.23 49.0702 211.958 49.5582C211.686 50.0462 211.31 50.4262 210.83 50.6982C210.358 50.9622 209.822 51.0942 209.222 51.0942C208.71 51.0942 208.246 50.9902 207.83 50.7822C207.422 50.5662 207.086 50.2542 206.822 49.8462V53.3622H205.97V44.7222H206.786V45.9702C207.042 45.5542 207.378 45.2342 207.794 45.0102C208.218 44.7862 208.694 44.6742 209.222 44.6742ZM209.162 50.3382C209.602 50.3382 210.002 50.2382 210.362 50.0382C210.722 49.8302 211.002 49.5382 211.202 49.1622C211.41 48.7862 211.514 48.3582 211.514 47.8782C211.514 47.3982 211.41 46.9742 211.202 46.6062C211.002 46.2302 210.722 45.9382 210.362 45.7302C210.002 45.5222 209.602 45.4182 209.162 45.4182C208.714 45.4182 208.31 45.5222 207.95 45.7302C207.598 45.9382 207.318 46.2302 207.11 46.6062C206.91 46.9742 206.81 47.3982 206.81 47.8782C206.81 48.3582 206.91 48.7862 207.11 49.1622C207.318 49.5382 207.598 49.8302 207.95 50.0382C208.31 50.2382 208.714 50.3382 209.162 50.3382ZM216.8 51.0942C216.192 51.0942 215.644 50.9582 215.156 50.6862C214.668 50.4062 214.284 50.0222 214.004 49.5342C213.724 49.0462 213.584 48.4942 213.584 47.8782C213.584 47.2622 213.724 46.7102 214.004 46.2222C214.284 45.7342 214.668 45.3542 215.156 45.0822C215.644 44.8102 216.192 44.6742 216.8 44.6742C217.408 44.6742 217.956 44.8102 218.444 45.0822C218.932 45.3542 219.312 45.7342 219.584 46.2222C219.864 46.7102 220.004 47.2622 220.004 47.8782C220.004 48.4942 219.864 49.0462 219.584 49.5342C219.312 50.0222 218.932 50.4062 218.444 50.6862C217.956 50.9582 217.408 51.0942 216.8 51.0942ZM216.8 50.3382C217.248 50.3382 217.648 50.2382 218 50.0382C218.36 49.8302 218.64 49.5382 218.84 49.1622C219.04 48.7862 219.14 48.3582 219.14 47.8782C219.14 47.3982 219.04 46.9702 218.84 46.5942C218.64 46.2182 218.36 45.9302 218 45.7302C217.648 45.5222 217.248 45.4182 216.8 45.4182C216.352 45.4182 215.948 45.5222 215.588 45.7302C215.236 45.9302 214.956 46.2182 214.748 46.5942C214.548 46.9702 214.448 47.3982 214.448 47.8782C214.448 48.3582 214.548 48.7862 214.748 49.1622C214.956 49.5382 215.236 49.8302 215.588 50.0382C215.948 50.2382 216.352 50.3382 216.8 50.3382ZM224.885 44.8782C225.469 44.8782 225.989 45.0102 226.445 45.2742C226.909 45.5302 227.269 45.8942 227.525 46.3662C227.781 46.8302 227.909 47.3622 227.909 47.9622C227.909 48.5782 227.773 49.1262 227.501 49.6062C227.237 50.0782 226.865 50.4462 226.385 50.7102C225.905 50.9742 225.353 51.1062 224.729 51.1062C223.681 51.1062 222.869 50.7382 222.293 50.0022C221.717 49.2662 221.429 48.2502 221.429 46.9542C221.429 45.6022 221.685 44.5662 222.197 43.8462C222.717 43.1262 223.525 42.6382 224.621 42.3822L227.453 41.7342L227.597 42.5142L224.933 43.1262C224.029 43.3262 223.365 43.6822 222.941 44.1942C222.517 44.6982 222.285 45.4462 222.245 46.4382C222.501 45.9502 222.857 45.5702 223.313 45.2982C223.769 45.0182 224.293 44.8782 224.885 44.8782ZM224.753 50.3982C225.193 50.3982 225.585 50.2982 225.929 50.0982C226.281 49.8902 226.553 49.6022 226.745 49.2342C226.945 48.8662 227.045 48.4502 227.045 47.9862C227.045 47.5222 226.949 47.1142 226.757 46.7622C226.565 46.4102 226.293 46.1382 225.941 45.9462C225.597 45.7462 225.201 45.6462 224.753 45.6462C224.305 45.6462 223.905 45.7462 223.553 45.9462C223.209 46.1382 222.937 46.4102 222.737 46.7622C222.545 47.1142 222.449 47.5222 222.449 47.9862C222.449 48.4502 222.545 48.8662 222.737 49.2342C222.937 49.6022 223.213 49.8902 223.565 50.0982C223.917 50.2982 224.313 50.3982 224.753 50.3982ZM232.339 51.0942C231.731 51.0942 231.183 50.9582 230.695 50.6862C230.207 50.4062 229.823 50.0222 229.543 49.5342C229.263 49.0462 229.123 48.4942 229.123 47.8782C229.123 47.2622 229.263 46.7102 229.543 46.2222C229.823 45.7342 230.207 45.3542 230.695 45.0822C231.183 44.8102 231.731 44.6742 232.339 44.6742C232.947 44.6742 233.495 44.8102 233.983 45.0822C234.471 45.3542 234.851 45.7342 235.123 46.2222C235.403 46.7102 235.543 47.2622 235.543 47.8782C235.543 48.4942 235.403 49.0462 235.123 49.5342C234.851 50.0222 234.471 50.4062 233.983 50.6862C233.495 50.9582 232.947 51.0942 232.339 51.0942ZM232.339 50.3382C232.787 50.3382 233.187 50.2382 233.539 50.0382C233.899 49.8302 234.179 49.5382 234.379 49.1622C234.579 48.7862 234.679 48.3582 234.679 47.8782C234.679 47.3982 234.579 46.9702 234.379 46.5942C234.179 46.2182 233.899 45.9302 233.539 45.7302C233.187 45.5222 232.787 45.4182 232.339 45.4182C231.891 45.4182 231.487 45.5222 231.127 45.7302C230.775 45.9302 230.495 46.2182 230.287 46.5942C230.087 46.9702 229.987 47.3982 229.987 47.8782C229.987 48.3582 230.087 48.7862 230.287 49.1622C230.495 49.5382 230.775 49.8302 231.127 50.0382C231.487 50.2382 231.891 50.3382 232.339 50.3382ZM241.57 45.4782H239.182V51.0342H238.33V45.4782H235.942V44.7222H241.57V45.4782ZM245.113 51.0942C244.505 51.0942 243.957 50.9582 243.469 50.6862C242.981 50.4062 242.597 50.0222 242.317 49.5342C242.037 49.0462 241.897 48.4942 241.897 47.8782C241.897 47.2622 242.037 46.7102 242.317 46.2222C242.597 45.7342 242.981 45.3542 243.469 45.0822C243.957 44.8102 244.505 44.6742 245.113 44.6742C245.721 44.6742 246.269 44.8102 246.757 45.0822C247.245 45.3542 247.625 45.7342 247.897 46.2222C248.177 46.7102 248.317 47.2622 248.317 47.8782C248.317 48.4942 248.177 49.0462 247.897 49.5342C247.625 50.0222 247.245 50.4062 246.757 50.6862C246.269 50.9582 245.721 51.0942 245.113 51.0942ZM245.113 50.3382C245.561 50.3382 245.961 50.2382 246.313 50.0382C246.673 49.8302 246.953 49.5382 247.153 49.1622C247.353 48.7862 247.453 48.3582 247.453 47.8782C247.453 47.3982 247.353 46.9702 247.153 46.5942C246.953 46.2182 246.673 45.9302 246.313 45.7302C245.961 45.5222 245.561 45.4182 245.113 45.4182C244.665 45.4182 244.261 45.5222 243.901 45.7302C243.549 45.9302 243.269 46.2182 243.061 46.5942C242.861 46.9702 242.761 47.3982 242.761 47.8782C242.761 48.3582 242.861 48.7862 243.061 49.1622C243.269 49.5382 243.549 49.8302 243.901 50.0382C244.261 50.2382 244.665 50.3382 245.113 50.3382ZM254.158 47.7702C255.014 47.9702 255.442 48.4862 255.442 49.3182C255.442 49.8702 255.238 50.2942 254.83 50.5902C254.422 50.8862 253.814 51.0342 253.006 51.0342H250.138V44.7222H252.922C253.642 44.7222 254.206 44.8622 254.614 45.1422C255.022 45.4222 255.226 45.8222 255.226 46.3422C255.226 46.6862 255.13 46.9822 254.938 47.2302C254.754 47.4702 254.494 47.6502 254.158 47.7702ZM250.966 47.5302H252.862C253.35 47.5302 253.722 47.4382 253.978 47.2542C254.242 47.0702 254.374 46.8022 254.374 46.4502C254.374 46.0982 254.242 45.8342 253.978 45.6582C253.722 45.4822 253.35 45.3942 252.862 45.3942H250.966V47.5302ZM252.97 50.3622C253.514 50.3622 253.922 50.2742 254.194 50.0982C254.466 49.9222 254.602 49.6462 254.602 49.2702C254.602 48.8942 254.478 48.6182 254.23 48.4422C253.982 48.2582 253.59 48.1662 253.054 48.1662H250.966V50.3622H252.97ZM266.243 44.7222V51.0342H265.391V45.4782H261.431V51.0342H260.579V44.7222H266.243ZM271.317 46.9542C272.109 46.9622 272.713 47.1382 273.129 47.4822C273.545 47.8262 273.753 48.3222 273.753 48.9702C273.753 49.6422 273.529 50.1582 273.081 50.5182C272.633 50.8782 271.993 51.0542 271.161 51.0462L268.665 51.0342V44.7222H269.517V46.9302L271.317 46.9542ZM274.809 44.7222H275.661V51.0342H274.809V44.7222ZM271.113 50.3982C271.697 50.4062 272.137 50.2902 272.433 50.0502C272.737 49.8022 272.889 49.4422 272.889 48.9702C272.889 48.5062 272.741 48.1622 272.445 47.9382C272.149 47.7142 271.705 47.5982 271.113 47.5902L269.517 47.5662V50.3742L271.113 50.3982ZM283.247 44.7222V51.0342H282.395V45.4782H279.371L279.287 47.0382C279.223 48.3502 279.071 49.3582 278.831 50.0622C278.591 50.7662 278.163 51.1182 277.547 51.1182C277.379 51.1182 277.175 51.0862 276.935 51.0222L276.995 50.2902C277.139 50.3222 277.239 50.3382 277.295 50.3382C277.623 50.3382 277.871 50.1862 278.039 49.8822C278.207 49.5782 278.319 49.2022 278.375 48.7542C278.431 48.3062 278.479 47.7142 278.519 46.9782L278.627 44.7222H283.247ZM291.189 48.1422H285.909C285.957 48.7982 286.209 49.3302 286.665 49.7382C287.121 50.1382 287.697 50.3382 288.393 50.3382C288.785 50.3382 289.145 50.2702 289.473 50.1342C289.801 49.9902 290.085 49.7822 290.325 49.5102L290.805 50.0622C290.525 50.3982 290.173 50.6542 289.749 50.8302C289.333 51.0062 288.873 51.0942 288.369 51.0942C287.721 51.0942 287.145 50.9582 286.641 50.6862C286.145 50.4062 285.757 50.0222 285.477 49.5342C285.197 49.0462 285.057 48.4942 285.057 47.8782C285.057 47.2622 285.189 46.7102 285.453 46.2222C285.725 45.7342 286.093 45.3542 286.557 45.0822C287.029 44.8102 287.557 44.6742 288.141 44.6742C288.725 44.6742 289.249 44.8102 289.713 45.0822C290.177 45.3542 290.541 45.7342 290.805 46.2222C291.069 46.7022 291.201 47.2542 291.201 47.8782L291.189 48.1422ZM288.141 45.4062C287.533 45.4062 287.021 45.6022 286.605 45.9942C286.197 46.3782 285.965 46.8822 285.909 47.5062H290.385C290.329 46.8822 290.093 46.3782 289.677 45.9942C289.269 45.6022 288.757 45.4062 288.141 45.4062ZM295.727 51.0942C295.103 51.0942 294.543 50.9582 294.047 50.6862C293.559 50.4142 293.175 50.0342 292.895 49.5462C292.615 49.0502 292.475 48.4942 292.475 47.8782C292.475 47.2622 292.615 46.7102 292.895 46.2222C293.175 45.7342 293.559 45.3542 294.047 45.0822C294.543 44.8102 295.103 44.6742 295.727 44.6742C296.271 44.6742 296.755 44.7822 297.179 44.9982C297.611 45.2062 297.951 45.5142 298.199 45.9222L297.563 46.3542C297.355 46.0422 297.091 45.8102 296.771 45.6582C296.451 45.4982 296.103 45.4182 295.727 45.4182C295.271 45.4182 294.859 45.5222 294.491 45.7302C294.131 45.9302 293.847 46.2182 293.639 46.5942C293.439 46.9702 293.339 47.3982 293.339 47.8782C293.339 48.3662 293.439 48.7982 293.639 49.1742C293.847 49.5422 294.131 49.8302 294.491 50.0382C294.859 50.2382 295.271 50.3382 295.727 50.3382C296.103 50.3382 296.451 50.2622 296.771 50.1102C297.091 49.9582 297.355 49.7262 297.563 49.4142L298.199 49.8462C297.951 50.2542 297.611 50.5662 297.179 50.7822C296.747 50.9902 296.263 51.0942 295.727 51.0942ZM302.347 51.0942C301.739 51.0942 301.191 50.9582 300.703 50.6862C300.215 50.4062 299.831 50.0222 299.551 49.5342C299.271 49.0462 299.131 48.4942 299.131 47.8782C299.131 47.2622 299.271 46.7102 299.551 46.2222C299.831 45.7342 300.215 45.3542 300.703 45.0822C301.191 44.8102 301.739 44.6742 302.347 44.6742C302.955 44.6742 303.503 44.8102 303.991 45.0822C304.479 45.3542 304.859 45.7342 305.131 46.2222C305.411 46.7102 305.551 47.2622 305.551 47.8782C305.551 48.4942 305.411 49.0462 305.131 49.5342C304.859 50.0222 304.479 50.4062 303.991 50.6862C303.503 50.9582 302.955 51.0942 302.347 51.0942ZM302.347 50.3382C302.795 50.3382 303.195 50.2382 303.547 50.0382C303.907 49.8302 304.187 49.5382 304.387 49.1622C304.587 48.7862 304.687 48.3582 304.687 47.8782C304.687 47.3982 304.587 46.9702 304.387 46.5942C304.187 46.2182 303.907 45.9302 303.547 45.7302C303.195 45.5222 302.795 45.4182 302.347 45.4182C301.899 45.4182 301.495 45.5222 301.135 45.7302C300.783 45.9302 300.503 46.2182 300.295 46.5942C300.095 46.9702 299.995 47.3982 299.995 47.8782C299.995 48.3582 300.095 48.7862 300.295 49.1622C300.503 49.5382 300.783 49.8302 301.135 50.0382C301.495 50.2382 301.899 50.3382 302.347 50.3382ZM310.012 51.0942C309.388 51.0942 308.828 50.9582 308.332 50.6862C307.844 50.4142 307.46 50.0342 307.18 49.5462C306.9 49.0502 306.76 48.4942 306.76 47.8782C306.76 47.2622 306.9 46.7102 307.18 46.2222C307.46 45.7342 307.844 45.3542 308.332 45.0822C308.828 44.8102 309.388 44.6742 310.012 44.6742C310.556 44.6742 311.04 44.7822 311.464 44.9982C311.896 45.2062 312.236 45.5142 312.484 45.9222L311.848 46.3542C311.64 46.0422 311.376 45.8102 311.056 45.6582C310.736 45.4982 310.388 45.4182 310.012 45.4182C309.556 45.4182 309.144 45.5222 308.776 45.7302C308.416 45.9302 308.132 46.2182 307.924 46.5942C307.724 46.9702 307.624 47.3982 307.624 47.8782C307.624 48.3662 307.724 48.7982 307.924 49.1742C308.132 49.5422 308.416 49.8302 308.776 50.0382C309.144 50.2382 309.556 50.3382 310.012 50.3382C310.388 50.3382 310.736 50.2622 311.056 50.1102C311.376 49.9582 311.64 49.7262 311.848 49.4142L312.484 49.8462C312.236 50.2542 311.896 50.5662 311.464 50.7822C311.032 50.9902 310.548 51.0942 310.012 51.0942ZM316.632 51.0942C316.024 51.0942 315.476 50.9582 314.988 50.6862C314.5 50.4062 314.116 50.0222 313.836 49.5342C313.556 49.0462 313.416 48.4942 313.416 47.8782C313.416 47.2622 313.556 46.7102 313.836 46.2222C314.116 45.7342 314.5 45.3542 314.988 45.0822C315.476 44.8102 316.024 44.6742 316.632 44.6742C317.24 44.6742 317.788 44.8102 318.276 45.0822C318.764 45.3542 319.144 45.7342 319.416 46.2222C319.696 46.7102 319.836 47.2622 319.836 47.8782C319.836 48.4942 319.696 49.0462 319.416 49.5342C319.144 50.0222 318.764 50.4062 318.276 50.6862C317.788 50.9582 317.24 51.0942 316.632 51.0942ZM316.632 50.3382C317.08 50.3382 317.48 50.2382 317.832 50.0382C318.192 49.8302 318.472 49.5382 318.672 49.1622C318.872 48.7862 318.972 48.3582 318.972 47.8782C318.972 47.3982 318.872 46.9702 318.672 46.5942C318.472 46.2182 318.192 45.9302 317.832 45.7302C317.48 45.5222 317.08 45.4182 316.632 45.4182C316.184 45.4182 315.78 45.5222 315.42 45.7302C315.068 45.9302 314.788 46.2182 314.58 46.5942C314.38 46.9702 314.28 47.3982 314.28 47.8782C314.28 48.3582 314.38 48.7862 314.58 49.1622C314.788 49.5382 315.068 49.8302 315.42 50.0382C315.78 50.2382 316.184 50.3382 316.632 50.3382ZM325.677 47.7702C326.533 47.9702 326.961 48.4862 326.961 49.3182C326.961 49.8702 326.757 50.2942 326.349 50.5902C325.941 50.8862 325.333 51.0342 324.525 51.0342H321.657V44.7222H324.441C325.161 44.7222 325.725 44.8622 326.133 45.1422C326.541 45.4222 326.745 45.8222 326.745 46.3422C326.745 46.6862 326.649 46.9822 326.457 47.2302C326.273 47.4702 326.013 47.6502 325.677 47.7702ZM322.485 47.5302H324.381C324.869 47.5302 325.241 47.4382 325.497 47.2542C325.761 47.0702 325.893 46.8022 325.893 46.4502C325.893 46.0982 325.761 45.8342 325.497 45.6582C325.241 45.4822 324.869 45.3942 324.381 45.3942H322.485V47.5302ZM324.489 50.3622C325.033 50.3622 325.441 50.2742 325.713 50.0982C325.985 49.9222 326.121 49.6462 326.121 49.2702C326.121 48.8942 325.997 48.6182 325.749 48.4422C325.501 48.2582 325.109 48.1662 324.573 48.1662H322.485V50.3622H324.489Z" fill="white"/>
<g clip-path="url(#clip0)">
<path d="M11.1079 8.33006L14.5582 11.7803C19.6731 7.32198 26.1492 4.88686 32.9998 4.88686C35.9219 4.88686 38.7749 5.33148 41.484 6.18498C41.5343 6.19858 41.5837 6.21419 41.6325 6.23232C45.2187 7.38441 48.5481 9.25809 51.4415 11.7803L54.8917 8.33006C49.0622 3.15115 41.3928 0 32.9998 0C24.6068 0 16.9374 3.15115 11.1079 8.33006Z" fill="white"/>
<path d="M57.6699 11.1082L54.2197 14.5584C58.6785 19.6734 61.1131 26.1494 61.1131 33.0001C61.1131 40.5094 58.1891 47.569 52.8793 52.8793C47.5694 58.1891 40.5093 61.1132 33 61.1132C25.4907 61.1132 18.4311 58.1891 13.1207 52.8793C7.81091 47.569 4.88686 40.5094 4.88686 33.0001C4.88686 26.1494 7.32147 19.6734 11.7803 14.5584L8.33006 11.1082C3.15115 16.9376 0 24.6071 0 33.0001C0 51.1965 14.8036 66.0001 33 66.0001C51.1964 66.0001 66 51.1965 66 33.0001C66 24.6071 62.8488 16.9376 57.6699 11.1082Z" fill="white"/>
<path d="M33.0001 8.81543C30.929 8.81543 28.9184 9.07727 26.9984 9.56923C27.0352 13.7682 26.9863 31.7245 26.9863 32.5397C26.9863 34.9341 27.8021 37.1869 29.9763 38.4508C31.7831 39.5012 34.1482 39.5143 35.9665 38.4835C38.2676 37.1793 38.8442 35.0539 38.9796 32.7381C39.0094 32.2285 39.0139 13.0326 39.0139 9.57225C37.0909 9.07828 35.0757 8.81543 33.0001 8.81543ZM33.0001 34.9643C31.8989 34.9643 31.0836 34.0644 31.0358 33C30.9885 31.939 31.9729 31.0356 33.0001 31.0356C34.1013 31.0356 34.9166 31.9355 34.9644 33C35.0117 34.0609 34.0273 34.9643 33.0001 34.9643Z" fill="white"/>
<path d="M23.0576 10.9546C14.6671 14.7538 8.81543 23.2062 8.81543 33.0001C8.81543 46.3353 19.6642 57.1846 33 57.1846C46.3357 57.1846 57.1845 46.3353 57.1845 33.0001C57.1845 23.2062 51.3328 14.7538 42.9424 10.9546V22.8155V30.7815C42.9424 32.631 43.0556 34.5273 42.4595 36.3093C40.8783 41.0366 36.1093 43.8317 31.2189 43.0225C26.5169 42.2451 23.1009 37.9393 23.0576 33.2458C23.0183 29.011 23.0576 24.7747 23.0576 20.5405C23.0576 17.345 23.0576 14.1501 23.0576 10.9546Z" fill="white"/>
</g>
<defs>
<clipPath id="clip0">
<rect width="66" height="66" fill="white"/>
</clipPath>
</defs>
</svg>
