<svg width="243" height="34" viewBox="0 0 243 34" fill="none" xmlns="http://www.w3.org/2000/svg">
<path d="M50.9894 23.7514L48.2684 19.7113H48.1071H45.2652V23.7514H42V9.24862H48.1071C49.3568 9.24862 50.4385 9.46271 51.3522 9.89088C52.2793 10.3191 52.9915 10.9268 53.4887 11.7141C53.9859 12.5014 54.2344 13.4337 54.2344 14.511C54.2344 15.5884 53.9791 16.5207 53.4685 17.308C52.9714 18.0815 52.2592 18.6754 51.332 19.0898L54.4965 23.7514H50.9894ZM50.9289 14.511C50.9289 13.6961 50.6736 13.0746 50.163 12.6464C49.6524 12.2044 48.9066 11.9834 47.9257 11.9834H45.2652V17.0387H47.9257C48.9066 17.0387 49.6524 16.8177 50.163 16.3757C50.6736 15.9337 50.9289 15.3122 50.9289 14.511Z" fill="white"/>
<path d="M63.8557 24C62.3911 24 61.0675 23.6754 59.8851 23.0262C58.7161 22.3771 57.7956 21.4862 57.1238 20.3536C56.4654 19.2072 56.1362 17.9227 56.1362 16.5C56.1362 15.0773 56.4654 13.7997 57.1238 12.6671C57.7956 11.5207 58.7161 10.6229 59.8851 9.97376C61.0675 9.32459 62.3911 9 63.8557 9C65.3204 9 66.6372 9.32459 67.8062 9.97376C68.9753 10.6229 69.8957 11.5207 70.5675 12.6671C71.2394 13.7997 71.5753 15.0773 71.5753 16.5C71.5753 17.9227 71.2394 19.2072 70.5675 20.3536C69.8957 21.4862 68.9753 22.3771 67.8062 23.0262C66.6372 23.6754 65.3204 24 63.8557 24ZM63.8557 21.1409C64.6888 21.1409 65.4413 20.9475 66.1132 20.5608C66.785 20.1602 67.3091 19.6077 67.6853 18.9033C68.075 18.1989 68.2698 17.3978 68.2698 16.5C68.2698 15.6022 68.075 14.8011 67.6853 14.0967C67.3091 13.3923 66.785 12.8467 66.1132 12.4599C65.4413 12.0594 64.6888 11.8591 63.8557 11.8591C63.0226 11.8591 62.2702 12.0594 61.5983 12.4599C60.9265 12.8467 60.3957 13.3923 60.006 14.0967C59.6298 14.8011 59.4417 15.6022 59.4417 16.5C59.4417 17.3978 59.6298 18.1989 60.006 18.9033C60.3957 19.6077 60.9265 20.1602 61.5983 20.5608C62.2702 20.9475 63.0226 21.1409 63.8557 21.1409Z" fill="white"/>
<path d="M84.5908 16.2099C85.397 16.4724 86.0286 16.9144 86.4854 17.5359C86.9423 18.1436 87.1707 18.8964 87.1707 19.7942C87.1707 21.0649 86.687 22.0456 85.7195 22.7362C84.7655 23.413 83.368 23.7514 81.5271 23.7514H74.2308V9.24862H81.124C82.844 9.24862 84.1608 9.58702 85.0745 10.2638C86.0017 10.9406 86.4653 11.8591 86.4653 13.0193C86.4653 13.7238 86.2973 14.3522 85.9614 14.9047C85.6389 15.4572 85.182 15.8923 84.5908 16.2099ZM77.4759 11.7762V15.1948H80.7209C81.5271 15.1948 82.1385 15.0497 82.5551 14.7597C82.9716 14.4696 83.1799 14.0414 83.1799 13.4751C83.1799 12.9088 82.9716 12.4876 82.5551 12.2113C82.1385 11.9213 81.5271 11.7762 80.7209 11.7762H77.4759ZM81.2853 21.2238C82.1452 21.2238 82.7902 21.0787 83.2202 20.7887C83.6636 20.4986 83.8853 20.0497 83.8853 19.442C83.8853 18.2403 83.0187 17.6395 81.2853 17.6395H77.4759V21.2238H81.2853Z" fill="white"/>
<path d="M96.6771 24C95.2124 24 93.8889 23.6754 92.7064 23.0262C91.5374 22.3771 90.6169 21.4862 89.9451 20.3536C89.2867 19.2072 88.9575 17.9227 88.9575 16.5C88.9575 15.0773 89.2867 13.7997 89.9451 12.6671C90.6169 11.5207 91.5374 10.6229 92.7064 9.97376C93.8889 9.32459 95.2124 9 96.6771 9C98.1417 9 99.4585 9.32459 100.628 9.97376C101.797 10.6229 102.717 11.5207 103.389 12.6671C104.061 13.7997 104.397 15.0773 104.397 16.5C104.397 17.9227 104.061 19.2072 103.389 20.3536C102.717 21.4862 101.797 22.3771 100.628 23.0262C99.4585 23.6754 98.1417 24 96.6771 24ZM96.6771 21.1409C97.5102 21.1409 98.2626 20.9475 98.9345 20.5608C99.6063 20.1602 100.13 19.6077 100.507 18.9033C100.896 18.1989 101.091 17.3978 101.091 16.5C101.091 15.6022 100.896 14.8011 100.507 14.0967C100.13 13.3923 99.6063 12.8467 98.9345 12.4599C98.2626 12.0594 97.5102 11.8591 96.6771 11.8591C95.844 11.8591 95.0915 12.0594 94.4196 12.4599C93.7478 12.8467 93.217 13.3923 92.8273 14.0967C92.4511 14.8011 92.263 15.6022 92.263 16.5C92.263 17.3978 92.4511 18.1989 92.8273 18.9033C93.217 19.6077 93.7478 20.1602 94.4196 20.5608C95.0915 20.9475 95.844 21.1409 96.6771 21.1409Z" fill="white"/>
<path d="M109.778 11.9834H105.263V9.24862H117.558V11.9834H113.043V23.7514H109.778V11.9834Z" fill="white"/>
<path d="M129.776 23.7514L126.551 19.0898C126.188 19.1312 125.812 19.1519 125.422 19.1519H121.633V23.7514H120.141V9.24862H125.422C127.222 9.24862 128.633 9.69061 129.655 10.5746C130.676 11.4586 131.186 12.674 131.186 14.221C131.186 15.3536 130.904 16.3135 130.34 17.1008C129.789 17.8743 128.996 18.4337 127.962 18.779L131.408 23.7514H129.776ZM125.382 17.8467C126.779 17.8467 127.847 17.529 128.586 16.8936C129.325 16.2583 129.695 15.3674 129.695 14.221C129.695 13.047 129.325 12.1492 128.586 11.5276C127.847 10.8923 126.779 10.5746 125.382 10.5746H121.633V17.8467H125.382Z" fill="white"/>
<path d="M143.757 19.8771H135.896L134.203 23.7514H132.651L139.101 9.24862H140.572L147.022 23.7514H145.45L143.757 19.8771ZM143.212 18.634L139.826 10.8439L136.44 18.634H143.212Z" fill="white"/>
<path d="M151.59 10.5746H146.632V9.24862H158.04V10.5746H153.081V23.7514H151.59V10.5746Z" fill="white"/>
<path d="M160.624 9.24862H162.115V23.7514H160.624V9.24862Z" fill="white"/>
<path d="M178.699 9.24862V23.7514H177.469L168.399 11.9834V23.7514H166.908V9.24862H168.137L177.227 21.0166V9.24862H178.699Z" fill="white"/>
<path d="M193.442 16.5H194.873V22.0318C194.215 22.6257 193.435 23.0815 192.535 23.3992C191.635 23.7168 190.687 23.8757 189.693 23.8757C188.282 23.8757 187.012 23.558 185.884 22.9227C184.755 22.2873 183.868 21.4102 183.223 20.2914C182.578 19.1588 182.256 17.895 182.256 16.5C182.256 15.105 182.578 13.8481 183.223 12.7293C183.868 11.5967 184.755 10.7127 185.884 10.0773C187.012 9.44199 188.289 9.12431 189.713 9.12431C190.788 9.12431 191.776 9.30387 192.676 9.66298C193.576 10.0083 194.336 10.5262 194.954 11.2169L194.026 12.1906C192.911 11.058 191.494 10.4917 189.774 10.4917C188.632 10.4917 187.597 10.7541 186.67 11.279C185.756 11.7901 185.037 12.5083 184.513 13.4337C183.989 14.3453 183.727 15.3674 183.727 16.5C183.727 17.6326 183.989 18.6547 184.513 19.5663C185.037 20.4779 185.756 21.1961 186.67 21.721C187.583 22.2459 188.611 22.5083 189.753 22.5083C191.205 22.5083 192.434 22.1354 193.442 21.3895V16.5Z" fill="white"/>
<path d="M203.186 23.8757C202.138 23.8757 201.13 23.703 200.163 23.3577C199.209 23.0124 198.47 22.5566 197.945 21.9903L198.53 20.8094C199.041 21.3343 199.719 21.7624 200.566 22.0939C201.412 22.4116 202.286 22.5704 203.186 22.5704C204.449 22.5704 205.396 22.3356 206.028 21.866C206.659 21.3826 206.975 20.761 206.975 20.0014C206.975 19.4213 206.8 18.9586 206.451 18.6133C206.115 18.268 205.699 18.0055 205.201 17.826C204.704 17.6326 204.012 17.4254 203.125 17.2044C202.064 16.9282 201.217 16.6657 200.586 16.4171C199.954 16.1547 199.41 15.761 198.953 15.2362C198.51 14.7113 198.288 14 198.288 13.1022C198.288 12.3702 198.476 11.7072 198.852 11.1133C199.229 10.5055 199.807 10.0221 200.586 9.66298C201.365 9.30387 202.333 9.12431 203.488 9.12431C204.294 9.12431 205.081 9.24171 205.846 9.47652C206.626 9.69751 207.298 10.0083 207.862 10.4088L207.358 11.6312C206.767 11.2307 206.135 10.9337 205.464 10.7403C204.792 10.5331 204.133 10.4296 203.488 10.4296C202.252 10.4296 201.318 10.6782 200.687 11.1754C200.069 11.6588 199.759 12.2873 199.759 13.0608C199.759 13.6409 199.927 14.1105 200.263 14.4696C200.613 14.8149 201.043 15.0843 201.553 15.2776C202.077 15.4572 202.776 15.6575 203.65 15.8785C204.684 16.1409 205.517 16.4033 206.149 16.6657C206.794 16.9144 207.338 17.3011 207.781 17.826C208.225 18.337 208.447 19.0345 208.447 19.9185C208.447 20.6506 208.252 21.3204 207.862 21.9282C207.486 22.5221 206.901 22.9986 206.108 23.3577C205.316 23.703 204.342 23.8757 203.186 23.8757Z" fill="white"/>
<path d="M212.13 23.855C211.835 23.855 211.579 23.7445 211.364 23.5235C211.163 23.3025 211.062 23.0331 211.062 22.7155C211.062 22.3978 211.163 22.1354 211.364 21.9282C211.579 21.7072 211.835 21.5967 212.13 21.5967C212.426 21.5967 212.681 21.7072 212.896 21.9282C213.111 22.1354 213.219 22.3978 213.219 22.7155C213.219 23.0331 213.111 23.3025 212.896 23.5235C212.681 23.7445 212.426 23.855 212.13 23.855Z" fill="white"/>
<path d="M226.399 23.7514L223.174 19.0898C222.811 19.1312 222.435 19.1519 222.045 19.1519H218.256V23.7514H216.764V9.24862H222.045C223.846 9.24862 225.257 9.69061 226.278 10.5746C227.299 11.4586 227.81 12.674 227.81 14.221C227.81 15.3536 227.527 16.3135 226.963 17.1008C226.412 17.8743 225.619 18.4337 224.585 18.779L228.031 23.7514H226.399ZM222.005 17.8467C223.402 17.8467 224.47 17.529 225.21 16.8936C225.949 16.2583 226.318 15.3674 226.318 14.221C226.318 13.047 225.949 12.1492 225.21 11.5276C224.47 10.8923 223.402 10.5746 222.005 10.5746H218.256V17.8467H222.005Z" fill="white"/>
<path d="M237.215 23.8757C235.388 23.8757 233.964 23.337 232.942 22.2597C231.921 21.1823 231.411 19.6146 231.411 17.5566V9.24862H232.902V17.4945C232.902 19.1796 233.272 20.4365 234.011 21.2652C234.75 22.0939 235.818 22.5083 237.215 22.5083C238.626 22.5083 239.701 22.0939 240.44 21.2652C241.179 20.4365 241.549 19.1796 241.549 17.4945V9.24862H243V17.5566C243 19.6146 242.489 21.1823 241.468 22.2597C240.46 23.337 239.043 23.8757 237.215 23.8757Z" fill="white"/>
<g clip-path="url(#clip0)">
<path d="M5.66064 4.24504L7.41891 6.00331C10.0255 3.73131 13.3257 2.49037 16.8169 2.49037C18.306 2.49037 19.7599 2.71695 21.1404 3.1519C21.1661 3.15883 21.1912 3.16678 21.2161 3.17602C23.0437 3.76313 24.7404 4.71797 26.2148 6.00331L27.9731 4.24504C25.0024 1.60584 21.094 0 16.8169 0C12.5398 0 8.63138 1.60584 5.66064 4.24504Z" fill="white"/>
<path d="M29.3889 5.66077L27.6306 7.41904C29.9029 10.0256 31.1436 13.3259 31.1436 16.817C31.1436 20.6438 29.6534 24.2414 26.9475 26.9476C24.2416 29.6535 20.6437 31.1436 16.817 31.1436C12.9902 31.1436 9.39257 29.6535 6.68639 26.9476C3.98048 24.2414 2.49037 20.6438 2.49037 16.817C2.49037 13.3259 3.73106 10.0256 6.00331 7.41904L4.24504 5.66077C1.60584 8.6315 0 12.5399 0 16.817C0 26.09 7.54397 33.634 16.817 33.634C26.0899 33.634 33.6339 26.09 33.6339 16.817C33.6339 12.5399 32.0281 8.6315 29.3889 5.66077Z" fill="white"/>
<path d="M16.8171 4.49239C15.7617 4.49239 14.737 4.62582 13.7586 4.87653C13.7773 7.01637 13.7524 16.167 13.7524 16.5824C13.7524 17.8026 14.1681 18.9506 15.2762 19.5947C16.1969 20.13 17.4022 20.1367 18.3288 19.6114C19.5015 18.9468 19.7953 17.8636 19.8643 16.6835C19.8794 16.4238 19.8817 6.64146 19.8817 4.87807C18.9018 4.62633 17.8748 4.49239 16.8171 4.49239ZM16.8171 17.818C16.2559 17.818 15.8404 17.3594 15.8161 16.8169C15.7919 16.2763 16.2936 15.8159 16.8171 15.8159C17.3783 15.8159 17.7937 16.2745 17.8181 16.8169C17.8422 17.3576 17.3406 17.818 16.8171 17.818Z" fill="white"/>
<path d="M11.75 5.58251C7.47421 7.51861 4.49219 11.826 4.49219 16.817C4.49219 23.6127 10.0208 29.1416 16.8167 29.1416C23.6127 29.1416 29.1413 23.6127 29.1413 16.817C29.1413 11.826 26.1593 7.51861 21.8834 5.58251V11.6269V15.6864C21.8834 16.6289 21.9412 17.5953 21.6373 18.5034C20.8316 20.9124 18.4013 22.3369 15.9091 21.9245C13.5129 21.5283 11.7721 19.3341 11.75 16.9422C11.73 14.7842 11.75 12.6253 11.75 10.4675C11.75 8.8391 11.75 7.21094 11.75 5.58251Z" fill="white"/>
</g>
<defs>
<clipPath id="clip0">
<rect width="33.6339" height="33.6339" fill="white"/>
</clipPath>
</defs>
</svg>
