<svg width="125" height="26" viewBox="0 0 125 26" fill="none" xmlns="http://www.w3.org/2000/svg">
<rect y="8" width="6" height="13" fill="white"/>
<rect x="9" width="6" height="21" fill="white"/>
<rect x="18" y="4" width="6" height="17" fill="white"/>
<path d="M45.0352 21H33.3398V18.6797L38.8594 12.7969C39.6172 11.9688 40.1758 11.2461 40.5352 10.6289C40.9023 10.0117 41.0859 9.42578 41.0859 8.87109C41.0859 8.11328 40.8945 7.51953 40.5117 7.08984C40.1289 6.65234 39.582 6.43359 38.8711 6.43359C38.1055 6.43359 37.5 6.69922 37.0547 7.23047C36.6172 7.75391 36.3984 8.44531 36.3984 9.30469H33C33 8.26562 33.2461 7.31641 33.7383 6.45703C34.2383 5.59766 34.9414 4.92578 35.8477 4.44141C36.7539 3.94922 37.7812 3.70312 38.9297 3.70312C40.6875 3.70312 42.0508 4.125 43.0195 4.96875C43.9961 5.8125 44.4844 7.00391 44.4844 8.54297C44.4844 9.38672 44.2656 10.2461 43.8281 11.1211C43.3906 11.9961 42.6406 13.0156 41.5781 14.1797L37.6992 18.2695H45.0352V21Z" fill="white"/>
<path d="M58.8164 21H47.1211V18.6797L52.6406 12.7969C53.3984 11.9688 53.957 11.2461 54.3164 10.6289C54.6836 10.0117 54.8672 9.42578 54.8672 8.87109C54.8672 8.11328 54.6758 7.51953 54.293 7.08984C53.9102 6.65234 53.3633 6.43359 52.6523 6.43359C51.8867 6.43359 51.2812 6.69922 50.8359 7.23047C50.3984 7.75391 50.1797 8.44531 50.1797 9.30469H46.7812C46.7812 8.26562 47.0273 7.31641 47.5195 6.45703C48.0195 5.59766 48.7227 4.92578 49.6289 4.44141C50.5352 3.94922 51.5625 3.70312 52.7109 3.70312C54.4688 3.70312 55.832 4.125 56.8008 4.96875C57.7773 5.8125 58.2656 7.00391 58.2656 8.54297C58.2656 9.38672 58.0469 10.2461 57.6094 11.1211C57.1719 11.9961 56.4219 13.0156 55.3594 14.1797L51.4805 18.2695H58.8164V21Z" fill="white"/>
<path d="M72.3867 13.9453C72.3867 16.3047 71.8984 18.1094 70.9219 19.3594C69.9453 20.6094 68.5156 21.2344 66.6328 21.2344C64.7734 21.2344 63.3516 20.6211 62.3672 19.3945C61.3828 18.168 60.8789 16.4102 60.8555 14.1211V10.9805C60.8555 8.59766 61.3477 6.78906 62.332 5.55469C63.3242 4.32031 64.75 3.70312 66.6094 3.70312C68.4688 3.70312 69.8906 4.31641 70.875 5.54297C71.8594 6.76172 72.3633 8.51562 72.3867 10.8047V13.9453ZM69 10.5C69 9.08594 68.8047 8.05859 68.4141 7.41797C68.0312 6.76953 67.4297 6.44531 66.6094 6.44531C65.8125 6.44531 65.2227 6.75391 64.8398 7.37109C64.4648 7.98047 64.2656 8.9375 64.2422 10.2422V14.3906C64.2422 15.7812 64.4297 16.8164 64.8047 17.4961C65.1875 18.168 65.7969 18.5039 66.6328 18.5039C67.4609 18.5039 68.0586 18.1797 68.4258 17.5312C68.793 16.8828 68.9844 15.8906 69 14.5547V10.5Z" fill="white"/>
<path d="M79.5703 16.8633L81.9258 8.32031H85.4648L81.1875 21H77.9531L73.6758 8.32031H77.2148L79.5703 16.8633Z" fill="white"/>
<path d="M85.1719 19.3359C85.1719 18.7969 85.3516 18.3594 85.7109 18.0234C86.0781 17.6875 86.5352 17.5195 87.082 17.5195C87.6367 17.5195 88.0938 17.6875 88.4531 18.0234C88.8203 18.3594 89.0039 18.7969 89.0039 19.3359C89.0039 19.8672 88.8242 20.3008 88.4648 20.6367C88.1055 20.9648 87.6445 21.1289 87.082 21.1289C86.5273 21.1289 86.0703 20.9648 85.7109 20.6367C85.3516 20.3008 85.1719 19.8672 85.1719 19.3359Z" fill="white"/>
<path d="M96.0352 5.20312V8.32031H98.2031V10.8047H96.0352V17.1328C96.0352 17.6016 96.125 17.9375 96.3047 18.1406C96.4844 18.3438 96.8281 18.4453 97.3359 18.4453C97.7109 18.4453 98.043 18.418 98.332 18.3633V20.9297C97.668 21.1328 96.9844 21.2344 96.2812 21.2344C93.9062 21.2344 92.6953 20.0352 92.6484 17.6367V10.8047H90.7969V8.32031H92.6484V5.20312H96.0352Z" fill="white"/>
<path d="M99.2109 14.543C99.2109 13.2852 99.4531 12.1641 99.9375 11.1797C100.422 10.1953 101.117 9.43359 102.023 8.89453C102.938 8.35547 103.996 8.08594 105.199 8.08594C106.91 8.08594 108.305 8.60938 109.383 9.65625C110.469 10.7031 111.074 12.125 111.199 13.9219L111.223 14.7891C111.223 16.7344 110.68 18.2969 109.594 19.4766C108.508 20.6484 107.051 21.2344 105.223 21.2344C103.395 21.2344 101.934 20.6484 100.84 19.4766C99.7539 18.3047 99.2109 16.7109 99.2109 14.6953V14.543ZM102.598 14.7891C102.598 15.9922 102.824 16.9141 103.277 17.5547C103.73 18.1875 104.379 18.5039 105.223 18.5039C106.043 18.5039 106.684 18.1914 107.145 17.5664C107.605 16.9336 107.836 15.9258 107.836 14.543C107.836 13.3633 107.605 12.4492 107.145 11.8008C106.684 11.1523 106.035 10.8281 105.199 10.8281C104.371 10.8281 103.73 11.1523 103.277 11.8008C102.824 12.4414 102.598 13.4375 102.598 14.7891Z" fill="white"/>
<path d="M124.723 14.7773C124.723 16.7305 124.277 18.2969 123.387 19.4766C122.504 20.6484 121.309 21.2344 119.801 21.2344C118.52 21.2344 117.484 20.7891 116.695 19.8984V25.875H113.309V8.32031H116.449L116.566 9.5625C117.387 8.57812 118.457 8.08594 119.777 8.08594C121.34 8.08594 122.555 8.66406 123.422 9.82031C124.289 10.9766 124.723 12.5703 124.723 14.6016V14.7773ZM121.336 14.5312C121.336 13.3516 121.125 12.4414 120.703 11.8008C120.289 11.1602 119.684 10.8398 118.887 10.8398C117.824 10.8398 117.094 11.2461 116.695 12.0586V17.25C117.109 18.0859 117.848 18.5039 118.91 18.5039C120.527 18.5039 121.336 17.1797 121.336 14.5312Z" fill="white"/>
</svg>
