<svg width="51" height="51" viewBox="0 0 51 51" fill="none" xmlns="http://www.w3.org/2000/svg">
<path d="M22.9019 4.50001C24.0566 2.50001 26.9434 2.5 28.0981 4.5L44.9856 33.75C46.1403 35.75 44.6969 38.25 42.3875 38.25H8.61251C6.30311 38.25 4.85973 35.75 6.01443 33.75L22.9019 4.50001Z" fill="#F9ED58"/>
<path d="M26.9551 27.6348H24.6113L24.2793 17.7812H27.2871L26.9551 27.6348ZM25.7832 29.1777C26.2585 29.1777 26.6393 29.3177 26.9258 29.5977C27.2188 29.8776 27.3652 30.2357 27.3652 30.6719C27.3652 31.1016 27.2188 31.4564 26.9258 31.7363C26.6393 32.0163 26.2585 32.1562 25.7832 32.1562C25.3145 32.1562 24.9336 32.0163 24.6406 31.7363C24.3542 31.4564 24.2109 31.1016 24.2109 30.6719C24.2109 30.2422 24.3542 29.8874 24.6406 29.6074C24.9336 29.321 25.3145 29.1777 25.7832 29.1777Z" fill="#323232"/>
</svg>
