<svg width="17" height="16" viewBox="0 0 17 16" fill="none" xmlns="http://www.w3.org/2000/svg">
<ellipse cx="9" cy="6.5" rx="8" ry="6.5" fill="#80BA27"/>
<path d="M6.8064 12.0188L2.3648 8.63364L1.65396 14.1728L6.8064 12.0188Z" fill="#80BA27"/>
<path d="M7.73859 8.73504C7.74681 8.30823 7.8023 7.97108 7.90506 7.7236C8.00781 7.47613 8.21743 7.20175 8.53391 6.90047L9.34155 6.17418C9.68681 5.83345 9.85943 5.46761 9.85943 5.07666C9.85943 4.70007 9.7464 4.40596 9.52035 4.19435C9.29429 3.97915 8.96547 3.87155 8.53391 3.87155C8.11467 3.87155 7.77764 3.96839 7.52281 4.16207C7.26798 4.35575 7.14057 4.61578 7.14057 4.94217H6C6.00822 4.36113 6.24455 3.89307 6.709 3.538C7.17756 3.17933 7.78586 3 8.53391 3C9.31073 3 9.91492 3.18292 10.3465 3.54876C10.7822 3.91101 11 4.40955 11 5.04438C11 5.67205 10.6671 6.29074 10.0012 6.90047L9.32922 7.48151C9.02918 7.77202 8.87916 8.18987 8.87916 8.73504H7.73859ZM7.68927 10.4405C7.68927 10.2791 7.74476 10.1446 7.85573 10.037C7.97082 9.9258 8.13933 9.87021 8.36128 9.87021C8.58323 9.87021 8.75175 9.9258 8.86683 10.037C8.98192 10.1446 9.03946 10.2791 9.03946 10.4405C9.03946 10.6019 8.98192 10.7364 8.86683 10.844C8.75175 10.948 8.58323 11 8.36128 11C8.13933 11 7.97082 10.948 7.85573 10.844C7.74476 10.7364 7.68927 10.6019 7.68927 10.4405Z" fill="white"/>
</svg>
