<svg width="15" height="15" viewBox="0 0 15 15" fill="none" xmlns="http://www.w3.org/2000/svg">
<path d="M0.15 7.50965C0.15 3.44192 3.44192 0.15 7.50965 0.15C11.5576 0.15 14.8503 3.44157 14.8693 7.51014C14.869 11.5774 11.5582 14.8693 7.50965 14.8693C3.44217 14.8693 0.15 11.5583 0.15 7.50965ZM1.45232 7.50965C1.45232 10.8354 4.16394 13.567 7.50965 13.567C10.8357 13.567 13.567 10.8357 13.567 7.50965C13.567 4.16426 10.855 1.45232 7.50965 1.45232C4.16426 1.45232 1.45232 4.16426 1.45232 7.50965Z" fill="#5E5E5E" stroke="white" stroke-width="0.3"/>
<path d="M8.00046 7.27802V7.32802H8.05046H11.4095C11.7285 7.32802 11.978 7.57527 11.9966 7.89716C11.9959 8.21637 11.7483 8.46354 11.4288 8.46354H7.4327C7.11283 8.46354 6.86494 8.21565 6.86494 7.89578V3.22396C6.86494 2.90409 7.11283 2.6562 7.4327 2.6562C7.75258 2.6562 8.00046 2.90409 8.00046 3.22396V7.27802Z" fill="#5E5E5E" stroke="white" stroke-width="0.1"/>
</svg>
