<svg width="15" height="15" viewBox="0 0 15 15" fill="none" xmlns="http://www.w3.org/2000/svg">
<path d="M14.4844 6.703C14.8281 7.09671 15 7.56229 15 8.09985C15 8.58734 14.8217 9.00915 14.4662 9.36559C14.1099 9.72199 13.6881 9.9001 13.2006 9.9001H10.6039C10.6288 9.98757 10.6539 10.0626 10.6788 10.1251C10.7035 10.1875 10.7383 10.2564 10.7819 10.3314C10.8255 10.4064 10.8568 10.4627 10.8755 10.5001C10.988 10.7125 11.0741 10.8876 11.1335 11.025C11.1928 11.1626 11.2519 11.3501 11.3115 11.5876C11.3709 11.8249 11.4005 12.0626 11.4005 12.3001C11.4005 12.45 11.3987 12.572 11.3957 12.6657C11.3928 12.7594 11.3769 12.9001 11.349 13.0876C11.3207 13.275 11.2831 13.4313 11.2364 13.5562C11.1894 13.6812 11.1144 13.8219 11.0114 13.9781C10.9082 14.1345 10.7833 14.2609 10.6363 14.3578C10.4893 14.4547 10.3019 14.5359 10.0738 14.6015C9.84543 14.6671 9.58777 14.7 9.30009 14.7C9.13762 14.7 8.99711 14.6406 8.87825 14.5218C8.75327 14.3968 8.64685 14.2406 8.55944 14.0531C8.4719 13.8656 8.41092 13.7031 8.37651 13.5656C8.34213 13.4281 8.30302 13.2374 8.25945 12.9937C8.203 12.7311 8.16101 12.5422 8.1327 12.4265C8.10463 12.3109 8.04979 12.1594 7.96862 11.9719C7.88729 11.7843 7.79052 11.6344 7.67799 11.5219C7.47178 11.3157 7.15619 10.9406 6.73109 10.3969C6.42476 9.99699 6.10918 9.61889 5.7842 9.26261C5.45915 8.90628 5.22168 8.72193 5.07172 8.70942C4.91558 8.69695 4.78119 8.63288 4.66866 8.5172C4.55613 8.40159 4.49988 8.26561 4.49988 8.10941V2.10007C4.49988 1.93756 4.55921 1.79856 4.67798 1.68295C4.79668 1.5672 4.93732 1.50629 5.09983 1.50002C5.31855 1.49375 5.81231 1.35639 6.5811 1.0874C7.06228 0.925156 7.43878 0.801528 7.71066 0.717271C7.98248 0.633013 8.36242 0.542319 8.84955 0.445321C9.33713 0.348488 9.78705 0.299923 10.1994 0.299923H10.3589H11.0714H11.4088C12.2403 0.312401 12.8556 0.556242 13.2558 1.03112C13.6181 1.46242 13.7712 2.02806 13.7151 2.72806C13.9588 2.95929 14.1277 3.25291 14.2213 3.60925C14.3274 3.99028 14.3274 4.35594 14.2213 4.70588C14.5088 5.08714 14.6432 5.51525 14.6243 5.99026C14.6251 6.19046 14.5783 6.4279 14.4844 6.703Z" fill="#FF0F00"/>
<path d="M3.30003 8.69983H0.600112C0.437508 8.69983 0.296871 8.64043 0.178136 8.52166C0.0594005 8.40296 0 8.26232 0 8.09981V2.0996C0 1.93733 0.0594005 1.79662 0.178169 1.67776C0.297002 1.55919 0.437639 1.49975 0.600145 1.49975H3.30003C3.4625 1.49975 3.60307 1.55919 3.72187 1.67776C3.84061 1.79662 3.89997 1.93729 3.89997 2.0996V8.09981C3.89997 8.26232 3.84057 8.40292 3.72187 8.52166C3.6031 8.64046 3.46253 8.69983 3.30003 8.69983ZM2.22185 2.87325C2.10312 2.75764 1.96251 2.69985 1.80001 2.69985C1.63123 2.69985 1.48902 2.75764 1.37347 2.87325C1.25785 2.98887 1.20006 3.13102 1.20006 3.2998C1.20006 3.46227 1.25782 3.60294 1.37347 3.72164C1.48905 3.84041 1.63123 3.89988 1.80001 3.89988C1.96251 3.89988 2.10312 3.84041 2.22185 3.72164C2.34062 3.60297 2.40002 3.4623 2.40002 3.2998C2.40002 3.13102 2.34075 2.9889 2.22185 2.87325Z" fill="#FF0F00"/>
</svg>
