<svg width="47" height="47" viewBox="0 0 47 47" fill="none" xmlns="http://www.w3.org/2000/svg">
<path d="M29.7476 26.8056L29.4921 26.8C29.4724 26.7995 29.4582 26.799 29.4459 26.7986C29.4299 26.798 29.4172 26.7975 29.3997 26.7975H27.8267H27.5767V26.5475V21.1208V21.0172L27.6499 20.944L29.6271 18.9668C30.0673 18.5265 30.0673 17.8131 29.6271 17.3729L29.627 17.3728C29.1872 16.9327 28.4735 16.9327 28.0336 17.3728L28.0335 17.3729L25.6529 19.7535C25.4416 19.9649 25.3228 20.2513 25.3228 20.5503V26.5475V26.7975H25.0728H21.9273H21.6773V26.5475V20.5503C21.6773 20.2516 21.5584 19.9648 21.3471 19.7535L18.9665 17.3729C18.5267 16.933 17.8132 16.9329 17.3729 17.3729C17.3729 17.3729 17.3729 17.3729 17.3729 17.3729M29.7476 26.8056L17.1962 19.1436C16.6583 18.6057 16.6583 17.734 17.1962 17.1961L17.3729 17.3729M29.7476 26.8056V26.55V25.6887C29.7476 25.3128 29.9352 24.9615 30.2477 24.7522C33.628 22.4892 35.647 18.7129 35.647 14.6509C35.647 7.95258 30.198 2.5039 23.5 2.5039C16.8021 2.5039 11.353 7.95258 11.353 14.6509C11.353 18.7129 13.372 22.4892 16.7523 24.7522C17.0649 24.9615 17.2524 25.3128 17.2524 25.6887V26.55V26.8056L17.5079 26.8C17.523 26.7997 17.5356 26.7993 17.547 26.7989C17.5661 26.7984 17.582 26.7979 17.6006 26.7979H19.1734H19.4234V26.5479V21.1208V21.0172L19.3502 20.944L17.3729 18.9668C16.9327 18.5266 16.9327 17.8132 17.3729 17.3729M29.7476 26.8056L17.3729 17.3729M14.9985 26.4012V26.2757L14.8979 26.2008C11.2536 23.4853 9.09912 19.221 9.09912 14.6509C9.09912 6.7105 15.5596 0.25 23.5 0.25C31.4404 0.25 37.9009 6.7105 37.9009 14.6509C37.9009 19.221 35.7464 23.4853 32.1022 26.2008L32.0015 26.2757V26.4012V27.6244V27.7375L32.0865 27.8121C32.9384 28.5609 33.4764 29.6557 33.4764 30.8742C33.4764 31.9472 33.0592 32.924 32.3783 33.6532L32.219 33.8239L32.3783 33.9945C33.0592 34.7237 33.4764 35.7008 33.4764 36.7735C33.4764 38.6016 32.2665 40.1531 30.6047 40.6685L30.4572 40.7142L30.4321 40.8667C29.8843 44.1991 26.9845 46.7499 23.5 46.7499C20.0156 46.7499 17.1161 44.1991 16.5683 40.8667L16.5432 40.7142L16.3956 40.6685C14.7336 40.1534 13.524 38.6017 13.524 36.7739C13.524 35.7008 13.9412 34.7241 14.6221 33.9948L14.7814 33.8242L14.6221 33.6536C13.9412 32.9244 13.524 31.9472 13.524 30.8742C13.524 29.6557 14.062 28.5609 14.9135 27.8125L14.9985 27.7378V27.6247V26.4012ZM19.1917 40.8505H18.849L18.9536 41.1768C19.5698 43.0993 21.3741 44.496 23.5 44.496C25.6258 44.496 27.4306 43.0997 28.0464 41.1768L28.1509 40.8505H27.8084H19.1917ZM31.2225 30.8742C31.2225 29.869 30.4049 29.0514 29.3997 29.0514H17.6006C16.5952 29.0514 15.7775 29.869 15.7775 30.8742C15.7775 31.8796 16.5952 32.6973 17.6006 32.6973H29.3997C30.4049 32.6973 31.2225 31.8796 31.2225 30.8742ZM17.6006 38.5966H29.3997C30.4049 38.5966 31.2225 37.779 31.2225 36.7739C31.2225 35.7684 30.4048 34.9512 29.3997 34.9512H17.6006C16.5952 34.9512 15.7775 35.7683 15.7775 36.7739C15.7775 37.7791 16.5952 38.5966 17.6006 38.5966Z" fill="#80BA27" stroke="#F7FFEC" stroke-width="0.5"/>
<path d="M4.32664 13.5239C4.94913 13.5239 5.4536 14.0284 5.4536 14.6509C5.4536 15.273 4.94908 15.7778 4.32664 15.7778H1.37695C0.754515 15.7778 0.25 15.273 0.25 14.6509C0.25 14.0284 0.754473 13.5239 1.37695 13.5239H4.32664Z" fill="#80BA27" stroke="#F7FFEC" stroke-width="0.5"/>
<path d="M42.6733 13.5239H45.623C46.2455 13.5239 46.75 14.0284 46.75 14.6509C46.75 15.273 46.2455 15.7778 45.623 15.7778H42.6733C42.0512 15.7778 41.5464 15.273 41.5464 14.6509C41.5464 14.0284 42.0512 13.5239 42.6733 13.5239Z" fill="#80BA27" stroke="#F7FFEC" stroke-width="0.5"/>
<path d="M4.90368 26.6885L4.90405 26.6882L7.45853 25.2138C7.99771 24.9024 8.1823 24.2133 7.87119 23.6741C7.56016 23.1351 6.87078 22.9504 6.33156 23.2615L3.77716 24.7363C3.23831 25.0477 3.05368 25.7368 3.3648 26.276L4.90368 26.6885ZM4.90368 26.6885C4.72655 26.7911 4.533 26.8394 4.34198 26.8394C3.95169 26.8394 3.57324 26.6372 3.3648 26.276L4.90368 26.6885Z" fill="#80BA27" stroke="#F7FFEC" stroke-width="0.5"/>
<path d="M43.223 4.5651L43.223 4.56511L40.6682 6.04026C40.6682 6.04028 40.6681 6.0403 40.6681 6.04031C40.4901 6.14297 40.2967 6.19148 40.1061 6.19148C39.7159 6.19148 39.3374 5.98896 39.1289 5.62769L39.1288 5.62756C38.8175 5.08888 39.0023 4.3995 39.5411 4.0884C39.5411 4.0884 39.5411 4.0884 39.5411 4.08839L42.096 2.61355L42.0961 2.6135C42.6348 2.30219 43.3239 2.48666 43.6353 3.02588C43.9467 3.56497 43.7618 4.25402 43.223 4.5651Z" fill="#80BA27" stroke="#F7FFEC" stroke-width="0.5"/>
<path d="M43.2223 24.7362L43.2223 24.7363C43.7615 25.0474 43.9463 25.7367 43.635 26.2754L43.6349 26.2755C43.4264 26.6368 43.0479 26.8393 42.6577 26.8393C42.4666 26.8393 42.2733 26.7908 42.0957 26.6882L42.0956 26.6881L39.5408 25.2136C39.5408 25.2136 39.5407 25.2136 39.5407 25.2136C39.0019 24.9025 38.8171 24.2131 39.1281 23.6744L39.1281 23.6743C39.4392 23.1353 40.1285 22.9506 40.6678 23.2617C40.6678 23.2618 40.6678 23.2618 40.6678 23.2618L43.2223 24.7362Z" fill="#80BA27" stroke="#F7FFEC" stroke-width="0.5"/>
<path d="M4.90439 2.61343L4.90445 2.61347L7.45888 4.08789C7.99779 4.39932 8.18263 5.0884 7.87168 5.62746C7.66279 5.98892 7.28452 6.19139 6.89405 6.19139C6.7034 6.19139 6.51 6.14288 6.33201 6.04022C6.33198 6.0402 6.33196 6.04019 6.33193 6.04017L3.77748 4.56537C3.23865 4.25428 3.0538 3.56523 3.36516 3.02615L3.36521 3.02606C3.67631 2.48691 4.36533 2.30209 4.90439 2.61343Z" fill="#80BA27" stroke="#F7FFEC" stroke-width="0.5"/>
</svg>
