<svg width="15" height="15" viewBox="0 0 15 15" fill="none" xmlns="http://www.w3.org/2000/svg">
<path d="M14.4844 8.297C14.8281 7.90329 15 7.43771 15 6.90015C15 6.41266 14.8217 5.99085 14.4662 5.63441C14.1099 5.27801 13.6881 5.0999 13.2006 5.0999H10.6039C10.6288 5.01243 10.6539 4.93743 10.6788 4.87494C10.7035 4.81246 10.7383 4.74363 10.7819 4.66863C10.8255 4.5936 10.8568 4.53732 10.8755 4.49989C10.988 4.28751 11.0741 4.11239 11.1335 3.975C11.1928 3.83736 11.2519 3.64993 11.3115 3.41242C11.3709 3.17505 11.4005 2.93745 11.4005 2.69994C11.4005 2.55001 11.3987 2.42803 11.3957 2.33435C11.3928 2.2406 11.3769 2.09993 11.349 1.9124C11.3207 1.72497 11.2831 1.56871 11.2364 1.44376C11.1894 1.31879 11.1144 1.17805 11.0114 1.02192C10.9082 0.865487 10.7833 0.739101 10.6363 0.642169C10.4893 0.545302 10.3019 0.464065 10.0738 0.398492C9.84543 0.332852 9.58777 0.300049 9.30009 0.300049C9.13762 0.300049 8.99711 0.359449 8.87825 0.478218C8.75327 0.603192 8.64685 0.759426 8.55944 0.946855C8.4719 1.13438 8.41092 1.29689 8.37651 1.43444C8.34213 1.57192 8.30302 1.7626 8.25945 2.00628C8.203 2.2689 8.16101 2.45784 8.1327 2.57346C8.10463 2.68908 8.04979 2.84061 7.96862 3.02808C7.88729 3.21567 7.79052 3.36557 7.67799 3.47813C7.47178 3.68434 7.15619 4.05936 6.73109 4.60306C6.42476 5.00301 6.10918 5.38111 5.7842 5.73739C5.45915 6.09372 5.22168 6.27807 5.07172 6.29058C4.91558 6.30305 4.78119 6.36712 4.66866 6.4828C4.55613 6.59841 4.49988 6.73439 4.49988 6.89059V12.8999C4.49988 13.0624 4.55921 13.2014 4.67798 13.3171C4.79668 13.4328 4.93732 13.4937 5.09983 13.5C5.31855 13.5063 5.81231 13.6436 6.5811 13.9126C7.06228 14.0748 7.43878 14.1985 7.71066 14.2827C7.98248 14.367 8.36242 14.4577 8.84955 14.5547C9.33713 14.6515 9.78705 14.7001 10.1994 14.7001H10.3589H11.0714H11.4088C12.2403 14.6876 12.8556 14.4438 13.2558 13.9689C13.6181 13.5376 13.7712 12.9719 13.7151 12.2719C13.9588 12.0407 14.1277 11.7471 14.2213 11.3908C14.3274 11.0097 14.3274 10.6441 14.2213 10.2941C14.5088 9.91286 14.6432 9.48475 14.6243 9.00974C14.6251 8.80954 14.5783 8.5721 14.4844 8.297Z" fill="#80BA27"/>
<path d="M3.30003 6.30017H0.600112C0.437508 6.30017 0.296871 6.35957 0.178136 6.47834C0.0594005 6.59704 0 6.73768 0 6.90019V12.9004C0 13.0627 0.0594005 13.2034 0.178169 13.3222C0.297002 13.4408 0.437639 13.5002 0.600145 13.5002H3.30003C3.4625 13.5002 3.60307 13.4408 3.72187 13.3222C3.84061 13.2034 3.89997 13.0627 3.89997 12.9004V6.90019C3.89997 6.73768 3.84057 6.59708 3.72187 6.47834C3.6031 6.35954 3.46253 6.30017 3.30003 6.30017ZM2.22185 12.1267C2.10312 12.2424 1.96251 12.3002 1.80001 12.3002C1.63123 12.3002 1.48902 12.2424 1.37347 12.1267C1.25785 12.0111 1.20006 11.869 1.20006 11.7002C1.20006 11.5377 1.25782 11.3971 1.37347 11.2784C1.48905 11.1596 1.63123 11.1001 1.80001 11.1001C1.96251 11.1001 2.10312 11.1596 2.22185 11.2784C2.34062 11.397 2.40002 11.5377 2.40002 11.7002C2.40002 11.869 2.34075 12.0111 2.22185 12.1267Z" fill="#80BA27"/>
</svg>
