<svg width="18" height="20" viewBox="0 0 18 20" fill="none" xmlns="http://www.w3.org/2000/svg">
<path d="M4.75568 10.2478C4.75568 9.70924 4.37564 9.38782 3.70497 9.38782C3.43139 9.38782 3.24603 9.41378 3.14884 9.43982V11.1692C3.26374 11.1949 3.405 11.2036 3.59873 11.2036C4.31427 11.2036 4.75568 10.8475 4.75568 10.2478Z" fill="#FF6025"/>
<path d="M8.90677 9.40517C8.60622 9.40517 8.41241 9.43121 8.29721 9.45728V13.2889C8.41219 13.3154 8.59766 13.3154 8.76548 13.3154C9.98384 13.3238 10.7786 12.6637 10.7786 11.2648C10.7875 10.0479 10.0632 9.40517 8.90677 9.40517Z" fill="#FF6025"/>
<path d="M16.8608 7.15391H16.3727V4.8367C16.3727 4.82225 16.3704 4.80769 16.3685 4.79306C16.3677 4.70104 16.3379 4.61067 16.2739 4.53906L12.3552 0.134132C12.354 0.133006 12.3528 0.132607 12.352 0.131372C12.3287 0.105701 12.3014 0.0843499 12.2727 0.0658677C12.2641 0.0602395 12.2555 0.0555191 12.2466 0.0506535C12.2217 0.0372548 12.1952 0.0261437 12.168 0.0181191C12.1606 0.0160857 12.154 0.0131082 12.1466 0.01122C12.117 0.00432098 12.0862 0 12.0551 0H2.42424C1.98445 0 1.62718 0.35196 1.62718 0.784349V7.15373H1.13924C0.510117 7.15373 0 7.65547 0 8.27475V14.1043C0 14.7231 0.510117 15.2252 1.13924 15.2252H1.62722V19.2157C1.62722 19.648 1.98449 20 2.42427 20H15.5757C16.0151 20 16.3728 19.648 16.3728 19.2157V15.2252H16.8608C17.4898 15.2252 18 14.7231 18 14.1043V8.27493C18 7.65569 17.4897 7.15391 16.8608 7.15391ZM2.42424 0.784494H11.6566V4.7973C11.6566 5.01397 11.8352 5.18946 12.0551 5.18946H15.5757V7.15416H2.42424V0.784494ZM12.2088 11.2209C12.2088 12.342 11.7939 13.115 11.2191 13.5931C10.5929 14.1057 9.63905 14.3489 8.47387 14.3489C7.77644 14.3489 7.28208 14.3055 6.94614 14.2622V8.50997C7.44057 8.43194 8.08556 8.38847 8.7655 8.38847C9.8951 8.38847 10.6282 8.58847 11.2024 9.01396C11.8202 9.46585 12.2088 10.1869 12.2088 11.2209ZM1.81537 14.2882V8.50997C2.23018 8.44083 2.81325 8.38847 3.63444 8.38847C4.46437 8.38847 5.05611 8.5449 5.45331 8.8579C5.8331 9.15314 6.08856 9.63982 6.08856 10.2133C6.08856 10.787 5.89483 11.2735 5.54136 11.6035C5.08224 12.0293 4.40242 12.2206 3.6075 12.2206C3.43119 12.2206 3.2717 12.2118 3.14864 12.1943V14.2884L1.81537 14.2882ZM15.5757 19.0033H2.42424V15.2252H15.5757L15.5757 19.0033ZM16.7306 9.51803H14.4432V10.8561H16.5802V11.9336H14.4432V14.2883H13.0929V8.43194H16.7306V9.51803Z" fill="#FF6025"/>
</svg>
