<svg width="37" height="37" viewBox="0 0 37 37" fill="none" xmlns="http://www.w3.org/2000/svg">
<path d="M18.5 0C8.29906 0 0 8.29906 0 18.5C0 28.7009 8.29906 37 18.5 37C28.7009 37 37 28.7009 37 18.5C37 8.29906 28.7009 0 18.5 0ZM18.5 34.832C9.49447 34.832 2.16797 27.5055 2.16797 18.5C2.16797 9.49447 9.49447 2.16797 18.5 2.16797C27.5055 2.16797 34.832 9.49447 34.832 18.5C34.832 27.5055 27.5055 34.832 18.5 34.832Z" fill="#FF6025"/>
<path d="M18.4999 20.7578C15.4691 20.7578 12.6186 22.3729 11.061 24.9728C10.7533 25.4864 10.9203 26.1522 11.4338 26.4598C11.9474 26.7676 12.613 26.6006 12.9207 26.087C14.089 24.1372 16.2268 22.9258 18.4999 22.9258C20.7794 22.9258 22.9204 24.1423 24.0872 26.1006C24.29 26.441 24.65 26.63 25.0194 26.63C25.2081 26.63 25.3993 26.5806 25.5732 26.4771C26.0875 26.1706 26.2559 25.5053 25.9495 24.991C24.3939 22.3798 21.5393 20.7578 18.4999 20.7578Z" fill="#FF6025"/>
<path d="M16.1348 14.7215C16.3287 14.1552 16.0267 13.5388 15.4603 13.3449C14.8938 13.1511 14.2775 13.4531 14.0836 14.0194C13.7286 15.0568 12.7532 15.7539 11.6566 15.7539C10.5593 15.7539 9.58359 15.0562 9.22891 14.0178C9.03539 13.4514 8.41939 13.1489 7.85276 13.3424C7.2862 13.5359 6.98391 14.1521 7.17736 14.7186C7.8318 16.6345 9.63187 17.9219 11.6566 17.9219C13.6799 17.9219 15.4795 16.6358 16.1348 14.7215Z" fill="#FF6025"/>
<path d="M29.1538 13.3449C28.5877 13.1512 27.9712 13.4531 27.7771 14.0194C27.422 15.0568 26.4466 15.7539 25.35 15.7539C24.2526 15.7539 23.277 15.0562 22.9223 14.0178C22.7287 13.4514 22.1129 13.1489 21.5461 13.3424C20.9796 13.5359 20.6773 14.1521 20.8707 14.7186C21.5252 16.6345 23.3253 17.9219 25.35 17.9219C27.3733 17.9219 29.1729 16.6359 29.8283 14.7217C30.0221 14.1552 29.7202 13.5389 29.1538 13.3449Z" fill="#FF6025"/>
</svg>
