<svg width="16" height="15" viewBox="0 0 16 15" fill="none" xmlns="http://www.w3.org/2000/svg">
<path d="M7.64131 0.726794C7.78803 0.429495 8.21197 0.429496 8.35869 0.726794L10.2581 4.57536C10.3163 4.69341 10.429 4.77524 10.5592 4.79417L14.8064 5.41132C15.1345 5.45899 15.2655 5.86218 15.0281 6.09359L11.9548 9.08928C11.8605 9.18118 11.8175 9.31358 11.8398 9.44333L12.5653 13.6733C12.6213 14.0001 12.2783 14.2493 11.9849 14.095L8.18614 12.0979C8.06961 12.0366 7.93039 12.0366 7.81386 12.0979L4.01511 14.095C3.72166 14.2493 3.37868 14.0001 3.43473 13.6733L4.16023 9.44333C4.18248 9.31358 4.13946 9.18118 4.04519 9.08928L0.971927 6.09359C0.73452 5.86218 0.865525 5.45899 1.19361 5.41132L5.44075 4.79417C5.57104 4.77524 5.68366 4.69341 5.74193 4.57536L7.64131 0.726794Z" fill="#AAAAAA"/>
</svg>
