<svg width="10" height="10" viewBox="0 0 10 10" fill="none" xmlns="http://www.w3.org/2000/svg">
<path d="M9.39395 0C9.05977 0 8.78789 0.274137 8.78789 0.611097C8.78789 0.779577 8.85586 0.932361 8.96559 1.043L7.12123 2.90274L5.34566 1.1124C5.50285 1.00188 5.60609 0.818551 5.60609 0.611117C5.60609 0.274157 5.33422 1.96829e-05 5.00004 1.96829e-05C4.66586 1.96829e-05 4.39398 0.274157 4.39398 0.611117C4.39398 0.818551 4.49723 1.00188 4.65441 1.1124L2.87885 2.90274L1.03449 1.043C1.14422 0.932361 1.21219 0.779577 1.21219 0.611097C1.21219 0.274137 0.940313 0 0.606133 0C0.271953 0 0 0.274137 0 0.611097C0 0.895239 0.193574 1.13399 0.454551 1.20209V10H9.54547V1.20211C9.80643 1.13399 10 0.895239 10 0.611097C10 0.274137 9.72813 0 9.39395 0Z" fill="#FF6025"/>
</svg>
